<?xml version="1.0" encoding="utf-8"?>
<!-- Generator: Adobe Illustrator 24.1.0, SVG Export Plug-In . SVG Version: 6.00 Build 0)  -->
<svg version="1.1" id="Layer_1" xmlns="http://www.w3.org/2000/svg" xmlns:xlink="http://www.w3.org/1999/xlink" x="0px" y="0px"
	 viewBox="0 0 350 350" style="enable-background:new 0 0 350 350;" xml:space="preserve">
<style type="text/css">
	.st0{fill:#1979DF;}
	.st1{fill:#FFFFFF;}
</style>
<g>
	<rect x="0.12" y="-0.24" class="st0" width="349.65" height="349.65"/>
	<g>
		<path class="st1" d="M113.58,282.41c-42.71-3.96-75.56-18.22-88.52-41.94c-17.4-31.79,5.27-72.52,53.48-106.87v34.11
			c-24.06,26.91-32.48,54.95-19.73,78.27C68.14,263.05,87.58,275.32,113.58,282.41z"/>
		<path class="st1" d="M330.64,69.36c-38.42,0.08-82.23,7.33-125.81,22.26c-34.28,11.72-64.26,26.78-88.33,43.43V110.7
			c15.9-8.17,33.38-15.62,52.18-22.05C226.87,68.73,285.47,62.71,330.64,69.36z"/>
		<path class="st1" d="M87.47,127.49v31.01c6-5.81,12.71-11.51,20.1-17.06v-26.02C100.51,119.34,93.79,123.36,87.47,127.49z"/>
		<g>
			<path class="st1" d="M87.47,173.55v83.09h20.1V156.5C100.18,162.05,93.47,167.75,87.47,173.55z"/>
			<path class="st1" d="M257.54,125.57v13.73h25.58v117.32h20.1V139.31h25.58v-13.73H257.54z"/>
			<path class="st1" d="M138.51,189.26c0,27.52,11.97,44.62,35.88,51.31c5.96,1.67,12.65,2.69,20.11,3.06
				c2.16,0.13,4.37,0.17,6.63,0.17c6.67,0,14.06-0.72,22.17-2.19v-44.55h20.11v54.45c-12.53,4.02-26.05,6.04-40.55,6.04
				c-6.49,0-12.59-0.31-18.33-0.91c-3.52-0.37-6.89-0.85-10.13-1.45c-37.32-6.89-55.99-28.85-55.99-65.93
				c0-22.56,7.46-39.21,22.35-49.95c10.18-7.33,23.84-11.92,40.97-13.75c5.68-0.6,11.75-0.91,18.2-0.91
				c6.33,0,43.48,0.91,43.48,0.91v13.75c0,0-35.95-0.91-41.29-0.91c-10.54,0-19.79,1.05-27.72,3.15
				C150.48,147.89,138.51,163.79,138.51,189.26z"/>
			<path class="st1" d="M107.56,115.42v26.02c-7.39,5.55-14.1,11.25-20.1,17.06v-31.01C93.79,123.36,100.51,119.34,107.56,115.42z"
				/>
		</g>
	</g>
</g>
</svg>
